<svg width="100%" height="100%" viewBox="0 0 56 56" version="1.1" xmlns="http://www.w3.org/2000/svg" xmlnsXlink="http://www.w3.org/1999/xlink" xmlSpace="preserve" xmlnsSerif="http://www.serif.com/" style="fill-rule:evenodd;clip-rule:evenodd;stroke-linejoin:round;stroke-miterlimit:2;">
    <path d="M21.213,21.213L6.667,21.213C2.987,21.213 0,24.2 0,27.88C-0,31.559 2.987,34.547 6.667,34.547L21.213,34.547L21.213,49.093C21.213,52.773 24.2,55.76 27.88,55.76C31.559,55.76 34.547,52.773 34.547,49.093L34.547,34.547L49.093,34.547C52.773,34.547 55.76,31.559 55.76,27.88C55.76,24.2 52.773,21.213 49.093,21.213L34.547,21.213L34.547,6.667C34.547,2.987 31.559,-0 27.88,-0C24.2,0 21.213,2.987 21.213,6.667L21.213,21.213Z" style="fill:white;"/>
</svg>
