<svg width="100%" height="100%" viewBox="0 0 59 54" version="1.1" xmlns="http://www.w3.org/2000/svg" xmlnsXlink="http://www.w3.org/1999/xlink" xmlSpace="preserve" xmlnsSerif="http://www.serif.com/" style="fill-rule:evenodd;clip-rule:evenodd;stroke-linejoin:round;stroke-miterlimit:2;">
    <path d="M23.412,33.301L51.667,33.301C55.346,33.301 58.333,30.314 58.333,26.634C58.333,22.955 55.346,19.968 51.667,19.968L23.481,19.968L32.439,11.516C35.115,8.991 35.238,4.768 32.713,2.092C30.188,-0.585 25.965,-0.707 23.289,1.818L2.092,21.818C0.757,23.077 -0,24.831 0,26.667C0,28.502 0.757,30.256 2.092,31.516L23.289,51.516C25.965,54.041 30.188,53.918 32.713,51.242C35.238,48.566 35.115,44.343 32.439,41.818L23.412,33.301Z" style="fill:white;"/>
</svg>
