<svg width="100%" height="100%" viewBox="0 0 44 44" version="1.1" xmlns="http://www.w3.org/2000/svg" xmlnsXlink="http://www.w3.org/1999/xlink" xmlSpace="preserve" xmlnsSerif="http://www.serif.com/" style="fill-rule:evenodd;clip-rule:evenodd;stroke-linejoin:round;stroke-miterlimit:2;">
    <path d="M12.239,21.667L1.953,31.953C-0.649,34.554 -0.649,38.779 1.953,41.381C4.554,43.982 8.779,43.982 11.381,41.381L21.667,31.095L31.953,41.381C34.554,43.982 38.779,43.982 41.381,41.381C43.982,38.779 43.982,34.554 41.381,31.953L31.095,21.667L41.381,11.381C43.982,8.779 43.982,4.554 41.381,1.953C38.779,-0.649 34.554,-0.649 31.953,1.953L21.667,12.239L11.381,1.953C8.779,-0.649 4.554,-0.649 1.953,1.953C-0.649,4.554 -0.649,8.779 1.953,11.381L12.239,21.667Z" style="fill:rgb(185,33,33);"/>
</svg>
