<svg width="100%" height="100%" viewBox="0 0 59 54" version="1.1" xmlns="http://www.w3.org/2000/svg" xmlnsXlink="http://www.w3.org/1999/xlink" xmlSpace="preserve" xmlnsSerif="http://www.serif.com/" style="fill-rule:evenodd;clip-rule:evenodd;stroke-linejoin:round;stroke-miterlimit:2;">
    <path d="M34.852,19.968L6.667,19.968C2.987,19.968 0,22.955 -0,26.634C-0,30.314 2.987,33.301 6.667,33.301L34.921,33.301L25.895,41.818C23.218,44.343 23.096,48.566 25.621,51.242C28.146,53.918 32.369,54.041 35.045,51.516L56.242,31.516C57.577,30.256 58.333,28.502 58.333,26.667C58.333,24.831 57.577,23.077 56.242,21.818L35.045,1.818C32.369,-0.707 28.146,-0.585 25.621,2.092C23.096,4.768 23.218,8.991 25.895,11.516L34.852,19.968Z" style="fill:rgb(91,110,127);"/>
</svg>
